<mxfile host="app.diagrams.net" modified="2021-05-04T06:46:21.999Z" agent="5.0 (Windows NT 10.0; Win64; x64) AppleWebKit/537.36 (KHTML, like Gecko) Chrome/90.0.4430.93 Safari/537.36 Edg/90.0.818.51" etag="Kr32eqA83WJKvHVRpLi-" version="14.6.9" type="github">
  <diagram id="9wdEu-6mbzqZVFEScxYP" name="Page-1">
    <mxGraphModel dx="595" dy="762" grid="1" gridSize="10" guides="1" tooltips="1" connect="1" arrows="1" fold="1" page="1" pageScale="1" pageWidth="827" pageHeight="1169" math="0" shadow="0">
      <root>
        <mxCell id="0" />
        <mxCell id="1" parent="0" />
        <mxCell id="Or1Zkcrp-nkx-5R_G34u-56" value="" style="ellipse;html=1;shape=startState;fillColor=#000000;strokeColor=#ff0000;" vertex="1" parent="1">
          <mxGeometry x="995" y="30" width="30" height="30" as="geometry" />
        </mxCell>
        <mxCell id="Or1Zkcrp-nkx-5R_G34u-57" value="" style="edgeStyle=orthogonalEdgeStyle;html=1;verticalAlign=bottom;endArrow=open;endSize=8;strokeColor=#ff0000;entryX=0.5;entryY=0;entryDx=0;entryDy=0;" edge="1" parent="1" target="Or1Zkcrp-nkx-5R_G34u-58">
          <mxGeometry relative="1" as="geometry">
            <mxPoint x="1010" y="-2" as="targetPoint" />
            <mxPoint x="1009.9999999999998" y="58" as="sourcePoint" />
          </mxGeometry>
        </mxCell>
        <mxCell id="Or1Zkcrp-nkx-5R_G34u-58" value="Rate Ingredients" style="rounded=1;whiteSpace=wrap;html=1;arcSize=40;fontColor=#000000;fillColor=#ffffc0;strokeColor=#ff0000;" vertex="1" parent="1">
          <mxGeometry x="950" y="78" width="120" height="40" as="geometry" />
        </mxCell>
        <mxCell id="Or1Zkcrp-nkx-5R_G34u-59" value="" style="edgeStyle=orthogonalEdgeStyle;html=1;verticalAlign=bottom;endArrow=open;endSize=8;strokeColor=#ff0000;entryX=0;entryY=0.5;entryDx=0;entryDy=0;" edge="1" parent="1" source="Or1Zkcrp-nkx-5R_G34u-58" target="Or1Zkcrp-nkx-5R_G34u-76">
          <mxGeometry relative="1" as="geometry">
            <mxPoint x="1010" y="98" as="targetPoint" />
            <Array as="points">
              <mxPoint x="910" y="98" />
              <mxPoint x="910" y="480" />
            </Array>
          </mxGeometry>
        </mxCell>
        <mxCell id="Or1Zkcrp-nkx-5R_G34u-60" value="Add Ingredient you like" style="rounded=1;whiteSpace=wrap;html=1;arcSize=40;fontColor=#000000;fillColor=#ffffc0;strokeColor=#ff0000;" vertex="1" parent="1">
          <mxGeometry x="950" y="138" width="120" height="40" as="geometry" />
        </mxCell>
        <mxCell id="Or1Zkcrp-nkx-5R_G34u-61" value="" style="edgeStyle=orthogonalEdgeStyle;html=1;verticalAlign=bottom;endArrow=open;endSize=8;strokeColor=#ff0000;exitX=1;exitY=0.5;exitDx=0;exitDy=0;" edge="1" parent="1" source="Or1Zkcrp-nkx-5R_G34u-60">
          <mxGeometry relative="1" as="geometry">
            <mxPoint x="1140" y="158" as="targetPoint" />
            <Array as="points">
              <mxPoint x="1110" y="158" />
              <mxPoint x="1110" y="158" />
            </Array>
          </mxGeometry>
        </mxCell>
        <mxCell id="Or1Zkcrp-nkx-5R_G34u-62" value="" style="edgeStyle=orthogonalEdgeStyle;html=1;verticalAlign=bottom;endArrow=open;endSize=8;strokeColor=#ff0000;entryX=0.5;entryY=0;entryDx=0;entryDy=0;" edge="1" parent="1" source="Or1Zkcrp-nkx-5R_G34u-71" target="Or1Zkcrp-nkx-5R_G34u-73">
          <mxGeometry relative="1" as="geometry">
            <mxPoint x="1010" y="240" as="targetPoint" />
            <Array as="points">
              <mxPoint x="1200" y="240" />
              <mxPoint x="1010" y="240" />
            </Array>
          </mxGeometry>
        </mxCell>
        <mxCell id="Or1Zkcrp-nkx-5R_G34u-63" value="" style="edgeStyle=orthogonalEdgeStyle;html=1;verticalAlign=bottom;endArrow=open;endSize=8;strokeColor=#ff0000;exitX=0.5;exitY=1;exitDx=0;exitDy=0;" edge="1" parent="1" source="Or1Zkcrp-nkx-5R_G34u-74">
          <mxGeometry relative="1" as="geometry">
            <mxPoint x="1250" y="420" as="targetPoint" />
            <mxPoint x="1150" y="530" as="sourcePoint" />
            <Array as="points">
              <mxPoint x="1430" y="420" />
            </Array>
          </mxGeometry>
        </mxCell>
        <mxCell id="Or1Zkcrp-nkx-5R_G34u-64" value="" style="edgeStyle=orthogonalEdgeStyle;html=1;verticalAlign=bottom;endArrow=open;endSize=8;strokeColor=#ff0000;" edge="1" parent="1">
          <mxGeometry relative="1" as="geometry">
            <mxPoint x="1215" y="1140" as="targetPoint" />
            <mxPoint x="1215" y="1140" as="sourcePoint" />
          </mxGeometry>
        </mxCell>
        <mxCell id="Or1Zkcrp-nkx-5R_G34u-65" value="" style="ellipse;html=1;shape=endState;fillColor=#000000;strokeColor=#ff0000;" vertex="1" parent="1">
          <mxGeometry x="1200" y="1110" width="30" height="30" as="geometry" />
        </mxCell>
        <mxCell id="Or1Zkcrp-nkx-5R_G34u-66" value="" style="endArrow=none;dashed=1;html=1;" edge="1" parent="1">
          <mxGeometry width="50" height="50" relative="1" as="geometry">
            <mxPoint x="1100" y="1160" as="sourcePoint" />
            <mxPoint x="1100" y="10" as="targetPoint" />
          </mxGeometry>
        </mxCell>
        <mxCell id="Or1Zkcrp-nkx-5R_G34u-67" value="" style="endArrow=none;dashed=1;html=1;" edge="1" parent="1">
          <mxGeometry width="50" height="50" relative="1" as="geometry">
            <mxPoint x="1309.9999999999998" y="1160" as="sourcePoint" />
            <mxPoint x="1309.9999999999998" y="10" as="targetPoint" />
          </mxGeometry>
        </mxCell>
        <mxCell id="Or1Zkcrp-nkx-5R_G34u-68" value="User" style="text;html=1;strokeColor=none;fillColor=none;align=center;verticalAlign=middle;whiteSpace=wrap;rounded=0;" vertex="1" parent="1">
          <mxGeometry x="990" y="10" width="40" height="20" as="geometry" />
        </mxCell>
        <mxCell id="Or1Zkcrp-nkx-5R_G34u-69" value="UI" style="text;html=1;strokeColor=none;fillColor=none;align=center;verticalAlign=middle;whiteSpace=wrap;rounded=0;" vertex="1" parent="1">
          <mxGeometry x="1195" y="10" width="40" height="20" as="geometry" />
        </mxCell>
        <mxCell id="Or1Zkcrp-nkx-5R_G34u-70" value="System" style="text;html=1;strokeColor=none;fillColor=none;align=center;verticalAlign=middle;whiteSpace=wrap;rounded=0;" vertex="1" parent="1">
          <mxGeometry x="1390" y="10" width="40" height="20" as="geometry" />
        </mxCell>
        <mxCell id="Or1Zkcrp-nkx-5R_G34u-71" value="Add new field under Ingredient you like" style="rounded=1;whiteSpace=wrap;html=1;arcSize=40;fontColor=#000000;fillColor=#ffffc0;strokeColor=#ff0000;" vertex="1" parent="1">
          <mxGeometry x="1140" y="138" width="120" height="40" as="geometry" />
        </mxCell>
        <mxCell id="Or1Zkcrp-nkx-5R_G34u-72" value="" style="edgeStyle=orthogonalEdgeStyle;html=1;align=left;verticalAlign=bottom;endArrow=open;endSize=8;strokeColor=#ff0000;exitX=0.5;exitY=1;exitDx=0;exitDy=0;entryX=0;entryY=0.5;entryDx=0;entryDy=0;" edge="1" parent="1" source="Or1Zkcrp-nkx-5R_G34u-73" target="Or1Zkcrp-nkx-5R_G34u-74">
          <mxGeometry x="0.5559" relative="1" as="geometry">
            <mxPoint x="1365.29" y="350" as="targetPoint" />
            <mxPoint as="offset" />
            <mxPoint x="995" y="330" as="sourcePoint" />
            <Array as="points">
              <mxPoint x="1010" y="350" />
            </Array>
          </mxGeometry>
        </mxCell>
        <mxCell id="Or1Zkcrp-nkx-5R_G34u-73" value="Type Ingredient Name" style="rounded=1;whiteSpace=wrap;html=1;arcSize=40;fontColor=#000000;fillColor=#ffffc0;strokeColor=#ff0000;" vertex="1" parent="1">
          <mxGeometry x="950" y="260" width="120" height="40" as="geometry" />
        </mxCell>
        <mxCell id="Or1Zkcrp-nkx-5R_G34u-74" value="Save Ingredient in Storage" style="rounded=1;whiteSpace=wrap;html=1;arcSize=40;fontColor=#000000;fillColor=#ffffc0;strokeColor=#ff0000;" vertex="1" parent="1">
          <mxGeometry x="1390" y="330" width="120" height="40" as="geometry" />
        </mxCell>
        <mxCell id="Or1Zkcrp-nkx-5R_G34u-75" value="Show Ingredient" style="rounded=1;whiteSpace=wrap;html=1;arcSize=40;fontColor=#000000;fillColor=#ffffc0;strokeColor=#ff0000;" vertex="1" parent="1">
          <mxGeometry x="1130" y="400" width="120" height="40" as="geometry" />
        </mxCell>
        <mxCell id="Or1Zkcrp-nkx-5R_G34u-76" value="Add another Ingredient?" style="rhombus;whiteSpace=wrap;html=1;fillColor=#ffffc0;strokeColor=#ff0000;" vertex="1" parent="1">
          <mxGeometry x="980" y="460" width="80" height="40" as="geometry" />
        </mxCell>
        <mxCell id="Or1Zkcrp-nkx-5R_G34u-77" style="edgeStyle=orthogonalEdgeStyle;rounded=1;orthogonalLoop=1;jettySize=auto;html=1;exitX=0.5;exitY=1;exitDx=0;exitDy=0;entryX=0.5;entryY=0;entryDx=0;entryDy=0;strokeColor=#FF6666;endArrow=open;endFill=0;" edge="1" parent="1" target="Or1Zkcrp-nkx-5R_G34u-76">
          <mxGeometry relative="1" as="geometry">
            <mxPoint x="1130" y="420" as="sourcePoint" />
            <mxPoint x="990" y="490" as="targetPoint" />
          </mxGeometry>
        </mxCell>
        <mxCell id="Or1Zkcrp-nkx-5R_G34u-78" style="edgeStyle=orthogonalEdgeStyle;rounded=1;orthogonalLoop=1;jettySize=auto;html=1;exitX=0.5;exitY=1;exitDx=0;exitDy=0;strokeColor=#FF6666;endArrow=open;endFill=0;entryX=0;entryY=0.5;entryDx=0;entryDy=0;" edge="1" parent="1" target="Or1Zkcrp-nkx-5R_G34u-60">
          <mxGeometry relative="1" as="geometry">
            <mxPoint x="980" y="480" as="sourcePoint" />
            <mxPoint x="920" y="160" as="targetPoint" />
            <Array as="points">
              <mxPoint x="930" y="480" />
              <mxPoint x="930" y="158" />
            </Array>
          </mxGeometry>
        </mxCell>
        <mxCell id="Or1Zkcrp-nkx-5R_G34u-79" value="Yes" style="edgeLabel;html=1;align=center;verticalAlign=middle;resizable=0;points=[];" vertex="1" connectable="0" parent="Or1Zkcrp-nkx-5R_G34u-78">
          <mxGeometry x="-0.3141" y="1" relative="1" as="geometry">
            <mxPoint as="offset" />
          </mxGeometry>
        </mxCell>
        <mxCell id="Or1Zkcrp-nkx-5R_G34u-80" value="&lt;span style=&quot;color: rgba(0 , 0 , 0 , 0) ; font-family: monospace ; font-size: 0px&quot;&gt;%3CmxGraphModel%3E%3Croot%3E%3CmxCell%20id%3D%220%22%2F%3E%3CmxCell%20id%3D%221%22%20parent%3D%220%22%2F%3E%3CmxCell%20id%3D%222%22%20value%3D%22%22%20style%3D%22edgeStyle%3DorthogonalEdgeStyle%3Bhtml%3D1%3BverticalAlign%3Dbottom%3BendArrow%3Dopen%3BendSize%3D8%3BstrokeColor%3D%23ff0000%3BexitX%3D1%3BexitY%3D0.5%3BexitDx%3D0%3BexitDy%3D0%3B%22%20edge%3D%221%22%20parent%3D%221%22%3E%3CmxGeometry%20relative%3D%221%22%20as%3D%22geometry%22%3E%3CmxPoint%20x%3D%221140%22%20y%3D%22158%22%20as%3D%22targetPoint%22%2F%3E%3CmxPoint%20x%3D%221070%22%20y%3D%22158%22%20as%3D%22sourcePoint%22%2F%3E%3CArray%20as%3D%22points%22%3E%3CmxPoint%20x%3D%221110%22%20y%3D%22158%22%2F%3E%3CmxPoint%20x%3D%221110%22%20y%3D%22158%22%2F%3E%3C%2FArray%3E%3C%2FmxGeometry%3E%3C%2FmxCell%3E%3CmxCell%20id%3D%223%22%20value%3D%22%22%20style%3D%22edgeStyle%3DorthogonalEdgeStyle%3Bhtml%3D1%3BverticalAlign%3Dbottom%3BendArrow%3Dopen%3BendSize%3D8%3BstrokeColor%3D%23ff0000%3BentryX%3D0.5%3BentryY%3D0%3BentryDx%3D0%3BentryDy%3D0%3B%22%20edge%3D%221%22%20target%3D%226%22%20parent%3D%221%22%3E%3CmxGeometry%20relative%3D%221%22%20as%3D%22geometry%22%3E%3CmxPoint%20x%3D%221010%22%20y%3D%22240%22%20as%3D%22targetPoint%22%2F%3E%3CArray%20as%3D%22points%22%3E%3CmxPoint%20x%3D%221200%22%20y%3D%22240%22%2F%3E%3CmxPoint%20x%3D%221010%22%20y%3D%22240%22%2F%3E%3C%2FArray%3E%3CmxPoint%20x%3D%221200%22%20y%3D%22178%22%20as%3D%22sourcePoint%22%2F%3E%3C%2FmxGeometry%3E%3C%2FmxCell%3E%3CmxCell%20id%3D%224%22%20value%3D%22%22%20style%3D%22edgeStyle%3DorthogonalEdgeStyle%3Bhtml%3D1%3BverticalAlign%3Dbottom%3BendArrow%3Dopen%3BendSize%3D8%3BstrokeColor%3D%23ff0000%3BexitX%3D0.5%3BexitY%3D1%3BexitDx%3D0%3BexitDy%3D0%3B%22%20edge%3D%221%22%20source%3D%227%22%20parent%3D%221%22%3E%3CmxGeometry%20relative%3D%221%22%20as%3D%22geometry%22%3E%3CmxPoint%20x%3D%221250%22%20y%3D%22420%22%20as%3D%22targetPoint%22%2F%3E%3CmxPoint%20x%3D%221150%22%20y%3D%22530%22%20as%3D%22sourcePoint%22%2F%3E%3CArray%20as%3D%22points%22%3E%3CmxPoint%20x%3D%221430%22%20y%3D%22420%22%2F%3E%3C%2FArray%3E%3C%2FmxGeometry%3E%3C%2FmxCell%3E%3CmxCell%20id%3D%225%22%20value%3D%22%22%20style%3D%22edgeStyle%3DorthogonalEdgeStyle%3Bhtml%3D1%3Balign%3Dleft%3BverticalAlign%3Dbottom%3BendArrow%3Dopen%3BendSize%3D8%3BstrokeColor%3D%23ff0000%3BexitX%3D0.5%3BexitY%3D1%3BexitDx%3D0%3BexitDy%3D0%3BentryX%3D0%3BentryY%3D0.5%3BentryDx%3D0%3BentryDy%3D0%3B%22%20edge%3D%221%22%20source%3D%226%22%20target%3D%227%22%20parent%3D%221%22%3E%3CmxGeometry%20x%3D%220.5559%22%20relative%3D%221%22%20as%3D%22geometry%22%3E%3CmxPoint%20x%3D%221365.29%22%20y%3D%22350%22%20as%3D%22targetPoint%22%2F%3E%3CmxPoint%20as%3D%22offset%22%2F%3E%3CmxPoint%20x%3D%22995%22%20y%3D%22330%22%20as%3D%22sourcePoint%22%2F%3E%3CArray%20as%3D%22points%22%3E%3CmxPoint%20x%3D%221010%22%20y%3D%22350%22%2F%3E%3C%2FArray%3E%3C%2FmxGeometry%3E%3C%2FmxCell%3E%3CmxCell%20id%3D%226%22%20value%3D%22Type%20Ingredient%20Name%22%20style%3D%22rounded%3D1%3BwhiteSpace%3Dwrap%3Bhtml%3D1%3BarcSize%3D40%3BfontColor%3D%23000000%3BfillColor%3D%23ffffc0%3BstrokeColor%3D%23ff0000%3B%22%20vertex%3D%221%22%20parent%3D%221%22%3E%3CmxGeometry%20x%3D%22950%22%20y%3D%22260%22%20width%3D%22120%22%20height%3D%2240%22%20as%3D%22geometry%22%2F%3E%3C%2FmxCell%3E%3CmxCell%20id%3D%227%22%20value%3D%22Save%20Ingredient%20in%20Storage%22%20style%3D%22rounded%3D1%3BwhiteSpace%3Dwrap%3Bhtml%3D1%3BarcSize%3D40%3BfontColor%3D%23000000%3BfillColor%3D%23ffffc0%3BstrokeColor%3D%23ff0000%3B%22%20vertex%3D%221%22%20parent%3D%221%22%3E%3CmxGeometry%20x%3D%221370%22%20y%3D%22330%22%20width%3D%22120%22%20height%3D%2240%22%20as%3D%22geometry%22%2F%3E%3C%2FmxCell%3E%3CmxCell%20id%3D%228%22%20value%3D%22Show%20Ingredient%22%20style%3D%22rounded%3D1%3BwhiteSpace%3Dwrap%3Bhtml%3D1%3BarcSize%3D40%3BfontColor%3D%23000000%3BfillColor%3D%23ffffc0%3BstrokeColor%3D%23ff0000%3B%22%20vertex%3D%221%22%20parent%3D%221%22%3E%3CmxGeometry%20x%3D%221130%22%20y%3D%22400%22%20width%3D%22120%22%20height%3D%2240%22%20as%3D%22geometry%22%2F%3E%3C%2FmxCell%3E%3CmxCell%20id%3D%229%22%20value%3D%22Add%20another%20Ingredient%3F%22%20style%3D%22rhombus%3BwhiteSpace%3Dwrap%3Bhtml%3D1%3BfillColor%3D%23ffffc0%3BstrokeColor%3D%23ff0000%3B%22%20vertex%3D%221%22%20parent%3D%221%22%3E%3CmxGeometry%20x%3D%22980%22%20y%3D%22460%22%20width%3D%2280%22%20height%3D%2240%22%20as%3D%22geometry%22%2F%3E%3C%2FmxCell%3E%3CmxCell%20id%3D%2210%22%20style%3D%22edgeStyle%3DorthogonalEdgeStyle%3Brounded%3D1%3BorthogonalLoop%3D1%3BjettySize%3Dauto%3Bhtml%3D1%3BexitX%3D0.5%3BexitY%3D1%3BexitDx%3D0%3BexitDy%3D0%3BentryX%3D0.5%3BentryY%3D0%3BentryDx%3D0%3BentryDy%3D0%3BstrokeColor%3D%23FF6666%3BendArrow%3Dopen%3BendFill%3D0%3B%22%20edge%3D%221%22%20target%3D%229%22%20parent%3D%221%22%3E%3CmxGeometry%20relative%3D%221%22%20as%3D%22geometry%22%3E%3CmxPoint%20x%3D%221130%22%20y%3D%22420%22%20as%3D%22sourcePoint%22%2F%3E%3CmxPoint%20x%3D%22990%22%20y%3D%22490%22%20as%3D%22targetPoint%22%2F%3E%3C%2FmxGeometry%3E%3C%2FmxCell%3E%3CmxCell%20id%3D%2211%22%20style%3D%22edgeStyle%3DorthogonalEdgeStyle%3Brounded%3D1%3BorthogonalLoop%3D1%3BjettySize%3Dauto%3Bhtml%3D1%3BexitX%3D0.5%3BexitY%3D1%3BexitDx%3D0%3BexitDy%3D0%3BstrokeColor%3D%23FF6666%3BendArrow%3Dopen%3BendFill%3D0%3BentryX%3D0%3BentryY%3D0.5%3BentryDx%3D0%3BentryDy%3D0%3B%22%20edge%3D%221%22%20parent%3D%221%22%3E%3CmxGeometry%20relative%3D%221%22%20as%3D%22geometry%22%3E%3CmxPoint%20x%3D%22980%22%20y%3D%22480%22%20as%3D%22sourcePoint%22%2F%3E%3CmxPoint%20x%3D%22950%22%20y%3D%22158%22%20as%3D%22targetPoint%22%2F%3E%3C%2FmxGeometry%3E%3C%2FmxCell%3E%3CmxCell%20id%3D%2212%22%20value%3D%22Yes%22%20style%3D%22edgeLabel%3Bhtml%3D1%3Balign%3Dcenter%3BverticalAlign%3Dmiddle%3Bresizable%3D0%3Bpoints%3D%5B%5D%3B%22%20vertex%3D%221%22%20connectable%3D%220%22%20parent%3D%2211%22%3E%3CmxGeometry%20x%3D%22-0.3141%22%20y%3D%221%22%20relative%3D%221%22%20as%3D%22geometry%22%3E%3CmxPoint%20as%3D%22offset%22%2F%3E%3C%2FmxGeometry%3E%3C%2FmxCell%3E%3C%2Froot%3E%3C%2FmxGraphModel%3E&lt;/span&gt;&lt;span style=&quot;color: rgba(0 , 0 , 0 , 0) ; font-family: monospace ; font-size: 0px&quot;&gt;%3CmxGraphModel%3E%3Croot%3E%3CmxCell%20id%3D%220%22%2F%3E%3CmxCell%20id%3D%221%22%20parent%3D%220%22%2F%3E%3CmxCell%20id%3D%222%22%20value%3D%22%22%20style%3D%22edgeStyle%3DorthogonalEdgeStyle%3Bhtml%3D1%3BverticalAlign%3Dbottom%3BendArrow%3Dopen%3BendSize%3D8%3BstrokeColor%3D%23ff0000%3BexitX%3D1%3BexitY%3D0.5%3BexitDx%3D0%3BexitDy%3D0%3B%22%20edge%3D%221%22%20parent%3D%221%22%3E%3CmxGeometry%20relative%3D%221%22%20as%3D%22geometry%22%3E%3CmxPoint%20x%3D%221140%22%20y%3D%22158%22%20as%3D%22targetPoint%22%2F%3E%3CmxPoint%20x%3D%221070%22%20y%3D%22158%22%20as%3D%22sourcePoint%22%2F%3E%3CArray%20as%3D%22points%22%3E%3CmxPoint%20x%3D%221110%22%20y%3D%22158%22%2F%3E%3CmxPoint%20x%3D%221110%22%20y%3D%22158%22%2F%3E%3C%2FArray%3E%3C%2FmxGeometry%3E%3C%2FmxCell%3E%3CmxCell%20id%3D%223%22%20value%3D%22%22%20style%3D%22edgeStyle%3DorthogonalEdgeStyle%3Bhtml%3D1%3BverticalAlign%3Dbottom%3BendArrow%3Dopen%3BendSize%3D8%3BstrokeColor%3D%23ff0000%3BentryX%3D0.5%3BentryY%3D0%3BentryDx%3D0%3BentryDy%3D0%3B%22%20edge%3D%221%22%20target%3D%226%22%20parent%3D%221%22%3E%3CmxGeometry%20relative%3D%221%22%20as%3D%22geometry%22%3E%3CmxPoint%20x%3D%221010%22%20y%3D%22240%22%20as%3D%22targetPoint%22%2F%3E%3CArray%20as%3D%22points%22%3E%3CmxPoint%20x%3D%221200%22%20y%3D%22240%22%2F%3E%3CmxPoint%20x%3D%221010%22%20y%3D%22240%22%2F%3E%3C%2FArray%3E%3CmxPoint%20x%3D%221200%22%20y%3D%22178%22%20as%3D%22sourcePoint%22%2F%3E%3C%2FmxGeometry%3E%3C%2FmxCell%3E%3CmxCell%20id%3D%224%22%20value%3D%22%22%20style%3D%22edgeStyle%3DorthogonalEdgeStyle%3Bhtml%3D1%3BverticalAlign%3Dbottom%3BendArrow%3Dopen%3BendSize%3D8%3BstrokeColor%3D%23ff0000%3BexitX%3D0.5%3BexitY%3D1%3BexitDx%3D0%3BexitDy%3D0%3B%22%20edge%3D%221%22%20source%3D%227%22%20parent%3D%221%22%3E%3CmxGeometry%20relative%3D%221%22%20as%3D%22geometry%22%3E%3CmxPoint%20x%3D%221250%22%20y%3D%22420%22%20as%3D%22targetPoint%22%2F%3E%3CmxPoint%20x%3D%221150%22%20y%3D%22530%22%20as%3D%22sourcePoint%22%2F%3E%3CArray%20as%3D%22points%22%3E%3CmxPoint%20x%3D%221430%22%20y%3D%22420%22%2F%3E%3C%2FArray%3E%3C%2FmxGeometry%3E%3C%2FmxCell%3E%3CmxCell%20id%3D%225%22%20value%3D%22%22%20style%3D%22edgeStyle%3DorthogonalEdgeStyle%3Bhtml%3D1%3Balign%3Dleft%3BverticalAlign%3Dbottom%3BendArrow%3Dopen%3BendSize%3D8%3BstrokeColor%3D%23ff0000%3BexitX%3D0.5%3BexitY%3D1%3BexitDx%3D0%3BexitDy%3D0%3BentryX%3D0%3BentryY%3D0.5%3BentryDx%3D0%3BentryDy%3D0%3B%22%20edge%3D%221%22%20source%3D%226%22%20target%3D%227%22%20parent%3D%221%22%3E%3CmxGeometry%20x%3D%220.5559%22%20relative%3D%221%22%20as%3D%22geometry%22%3E%3CmxPoint%20x%3D%221365.29%22%20y%3D%22350%22%20as%3D%22targetPoint%22%2F%3E%3CmxPoint%20as%3D%22offset%22%2F%3E%3CmxPoint%20x%3D%22995%22%20y%3D%22330%22%20as%3D%22sourcePoint%22%2F%3E%3CArray%20as%3D%22points%22%3E%3CmxPoint%20x%3D%221010%22%20y%3D%22350%22%2F%3E%3C%2FArray%3E%3C%2FmxGeometry%3E%3C%2FmxCell%3E%3CmxCell%20id%3D%226%22%20value%3D%22Type%20Ingredient%20Name%22%20style%3D%22rounded%3D1%3BwhiteSpace%3Dwrap%3Bhtml%3D1%3BarcSize%3D40%3BfontColor%3D%23000000%3BfillColor%3D%23ffffc0%3BstrokeColor%3D%23ff0000%3B%22%20vertex%3D%221%22%20parent%3D%221%22%3E%3CmxGeometry%20x%3D%22950%22%20y%3D%22260%22%20width%3D%22120%22%20height%3D%2240%22%20as%3D%22geometry%22%2F%3E%3C%2FmxCell%3E%3CmxCell%20id%3D%227%22%20value%3D%22Save%20Ingredient%20in%20Storage%22%20style%3D%22rounded%3D1%3BwhiteSpace%3Dwrap%3Bhtml%3D1%3BarcSize%3D40%3BfontColor%3D%23000000%3BfillColor%3D%23ffffc0%3BstrokeColor%3D%23ff0000%3B%22%20vertex%3D%221%22%20parent%3D%221%22%3E%3CmxGeometry%20x%3D%221370%22%20y%3D%22330%22%20width%3D%22120%22%20height%3D%2240%22%20as%3D%22geometry%22%2F%3E%3C%2FmxCell%3E%3CmxCell%20id%3D%228%22%20value%3D%22Show%20Ingredient%22%20style%3D%22rounded%3D1%3BwhiteSpace%3Dwrap%3Bhtml%3D1%3BarcSize%3D40%3BfontColor%3D%23000000%3BfillColor%3D%23ffffc0%3BstrokeColor%3D%23ff0000%3B%22%20vertex%3D%221%22%20parent%3D%221%22%3E%3CmxGeometry%20x%3D%221130%22%20y%3D%22400%22%20width%3D%22120%22%20height%3D%2240%22%20as%3D%22geometry%22%2F%3E%3C%2FmxCell%3E%3CmxCell%20id%3D%229%22%20value%3D%22Add%20another%20Ingredient%3F%22%20style%3D%22rhombus%3BwhiteSpace%3Dwrap%3Bhtml%3D1%3BfillColor%3D%23ffffc0%3BstrokeColor%3D%23ff0000%3B%22%20vertex%3D%221%22%20parent%3D%221%22%3E%3CmxGeometry%20x%3D%22980%22%20y%3D%22460%22%20width%3D%2280%22%20height%3D%2240%22%20as%3D%22geometry%22%2F%3E%3C%2FmxCell%3E%3CmxCell%20id%3D%2210%22%20style%3D%22edgeStyle%3DorthogonalEdgeStyle%3Brounded%3D1%3BorthogonalLoop%3D1%3BjettySize%3Dauto%3Bhtml%3D1%3BexitX%3D0.5%3BexitY%3D1%3BexitDx%3D0%3BexitDy%3D0%3BentryX%3D0.5%3BentryY%3D0%3BentryDx%3D0%3BentryDy%3D0%3BstrokeColor%3D%23FF6666%3BendArrow%3Dopen%3BendFill%3D0%3B%22%20edge%3D%221%22%20target%3D%229%22%20parent%3D%221%22%3E%3CmxGeometry%20relative%3D%221%22%20as%3D%22geometry%22%3E%3CmxPoint%20x%3D%221130%22%20y%3D%22420%22%20as%3D%22sourcePoint%22%2F%3E%3CmxPoint%20x%3D%22990%22%20y%3D%22490%22%20as%3D%22targetPoint%22%2F%3E%3C%2FmxGeometry%3E%3C%2FmxCell%3E%3CmxCell%20id%3D%2211%22%20style%3D%22edgeStyle%3DorthogonalEdgeStyle%3Brounded%3D1%3BorthogonalLoop%3D1%3BjettySize%3Dauto%3Bhtml%3D1%3BexitX%3D0.5%3BexitY%3D1%3BexitDx%3D0%3BexitDy%3D0%3BstrokeColor%3D%23FF6666%3BendArrow%3Dopen%3BendFill%3D0%3BentryX%3D0%3BentryY%3D0.5%3BentryDx%3D0%3BentryDy%3D0%3B%22%20edge%3D%221%22%20parent%3D%221%22%3E%3CmxGeometry%20relative%3D%221%22%20as%3D%22geometry%22%3E%3CmxPoint%20x%3D%22980%22%20y%3D%22480%22%20as%3D%22sourcePoint%22%2F%3E%3CmxPoint%20x%3D%22950%22%20y%3D%22158%22%20as%3D%22targetPoint%22%2F%3E%3C%2FmxGeometry%3E%3C%2FmxCell%3E%3CmxCell%20id%3D%2212%22%20value%3D%22Yes%22%20style%3D%22edgeLabel%3Bhtml%3D1%3Balign%3Dcenter%3BverticalAlign%3Dmiddle%3Bresizable%3D0%3Bpoints%3D%5B%5D%3B%22%20vertex%3D%221%22%20connectable%3D%220%22%20parent%3D%2211%22%3E%3CmxGeometry%20x%3D%22-0.3141%22%20y%3D%221%22%20relative%3D%221%22%20as%3D%22geometry%22%3E%3CmxPoint%20as%3D%22offset%22%2F%3E%3C%2FmxGeometry%3E%3C%2FmxCell%3E%3C%2Froot%3E%3C%2FmxGraphModel%3E&lt;/span&gt;&lt;span style=&quot;color: rgba(0 , 0 , 0 , 0) ; font-family: monospace ; font-size: 0px&quot;&gt;%3CmxGraphModel%3E%3Croot%3E%3CmxCell%20id%3D%220%22%2F%3E%3CmxCell%20id%3D%221%22%20parent%3D%220%22%2F%3E%3CmxCell%20id%3D%222%22%20value%3D%22%22%20style%3D%22edgeStyle%3DorthogonalEdgeStyle%3Bhtml%3D1%3BverticalAlign%3Dbottom%3BendArrow%3Dopen%3BendSize%3D8%3BstrokeColor%3D%23ff0000%3BexitX%3D1%3BexitY%3D0.5%3BexitDx%3D0%3BexitDy%3D0%3B%22%20edge%3D%221%22%20parent%3D%221%22%3E%3CmxGeometry%20relative%3D%221%22%20as%3D%22geometry%22%3E%3CmxPoint%20x%3D%221140%22%20y%3D%22158%22%20as%3D%22targetPoint%22%2F%3E%3CmxPoint%20x%3D%221070%22%20y%3D%22158%22%20as%3D%22sourcePoint%22%2F%3E%3CArray%20as%3D%22points%22%3E%3CmxPoint%20x%3D%221110%22%20y%3D%22158%22%2F%3E%3CmxPoint%20x%3D%221110%22%20y%3D%22158%22%2F%3E%3C%2FArray%3E%3C%2FmxGeometry%3E%3C%2FmxCell%3E%3CmxCell%20id%3D%223%22%20value%3D%22%22%20style%3D%22edgeStyle%3DorthogonalEdgeStyle%3Bhtml%3D1%3BverticalAlign%3Dbottom%3BendArrow%3Dopen%3BendSize%3D8%3BstrokeColor%3D%23ff0000%3BentryX%3D0.5%3BentryY%3D0%3BentryDx%3D0%3BentryDy%3D0%3B%22%20edge%3D%221%22%20target%3D%226%22%20parent%3D%221%22%3E%3CmxGeometry%20relative%3D%221%22%20as%3D%22geometry%22%3E%3CmxPoint%20x%3D%221010%22%20y%3D%22240%22%20as%3D%22targetPoint%22%2F%3E%3CArray%20as%3D%22points%22%3E%3CmxPoint%20x%3D%221200%22%20y%3D%22240%22%2F%3E%3CmxPoint%20x%3D%221010%22%20y%3D%22240%22%2F%3E%3C%2FArray%3E%3CmxPoint%20x%3D%221200%22%20y%3D%22178%22%20as%3D%22sourcePoint%22%2F%3E%3C%2FmxGeometry%3E%3C%2FmxCell%3E%3CmxCell%20id%3D%224%22%20value%3D%22%22%20style%3D%22edgeStyle%3DorthogonalEdgeStyle%3Bhtml%3D1%3BverticalAlign%3Dbottom%3BendArrow%3Dopen%3BendSize%3D8%3BstrokeColor%3D%23ff0000%3BexitX%3D0.5%3BexitY%3D1%3BexitDx%3D0%3BexitDy%3D0%3B%22%20edge%3D%221%22%20source%3D%227%22%20parent%3D%221%22%3E%3CmxGeometry%20relative%3D%221%22%20as%3D%22geometry%22%3E%3CmxPoint%20x%3D%221250%22%20y%3D%22420%22%20as%3D%22targetPoint%22%2F%3E%3CmxPoint%20x%3D%221150%22%20y%3D%22530%22%20as%3D%22sourcePoint%22%2F%3E%3CArray%20as%3D%22points%22%3E%3CmxPoint%20x%3D%221430%22%20y%3D%22420%22%2F%3E%3C%2FArray%3E%3C%2FmxGeometry%3E%3C%2FmxCell%3E%3CmxCell%20id%3D%225%22%20value%3D%22%22%20style%3D%22edgeStyle%3DorthogonalEdgeStyle%3Bhtml%3D1%3Balign%3Dleft%3BverticalAlign%3Dbottom%3BendArrow%3Dopen%3BendSize%3D8%3BstrokeColor%3D%23ff0000%3BexitX%3D0.5%3BexitY%3D1%3BexitDx%3D0%3BexitDy%3D0%3BentryX%3D0%3BentryY%3D0.5%3BentryDx%3D0%3BentryDy%3D0%3B%22%20edge%3D%221%22%20source%3D%226%22%20target%3D%227%22%20parent%3D%221%22%3E%3CmxGeometry%20x%3D%220.5559%22%20relative%3D%221%22%20as%3D%22geometry%22%3E%3CmxPoint%20x%3D%221365.29%22%20y%3D%22350%22%20as%3D%22targetPoint%22%2F%3E%3CmxPoint%20as%3D%22offset%22%2F%3E%3CmxPoint%20x%3D%22995%22%20y%3D%22330%22%20as%3D%22sourcePoint%22%2F%3E%3CArray%20as%3D%22points%22%3E%3CmxPoint%20x%3D%221010%22%20y%3D%22350%22%2F%3E%3C%2FArray%3E%3C%2FmxGeometry%3E%3C%2FmxCell%3E%3CmxCell%20id%3D%226%22%20value%3D%22Type%20Ingredient%20Name%22%20style%3D%22rounded%3D1%3BwhiteSpace%3Dwrap%3Bhtml%3D1%3BarcSize%3D40%3BfontColor%3D%23000000%3BfillColor%3D%23ffffc0%3BstrokeColor%3D%23ff0000%3B%22%20vertex%3D%221%22%20parent%3D%221%22%3E%3CmxGeometry%20x%3D%22950%22%20y%3D%22260%22%20width%3D%22120%22%20height%3D%2240%22%20as%3D%22geometry%22%2F%3E%3C%2FmxCell%3E%3CmxCell%20id%3D%227%22%20value%3D%22Save%20Ingredient%20in%20Storage%22%20style%3D%22rounded%3D1%3BwhiteSpace%3Dwrap%3Bhtml%3D1%3BarcSize%3D40%3BfontColor%3D%23000000%3BfillColor%3D%23ffffc0%3BstrokeColor%3D%23ff0000%3B%22%20vertex%3D%221%22%20parent%3D%221%22%3E%3CmxGeometry%20x%3D%221370%22%20y%3D%22330%22%20width%3D%22120%22%20height%3D%2240%22%20as%3D%22geometry%22%2F%3E%3C%2FmxCell%3E%3CmxCell%20id%3D%228%22%20value%3D%22Show%20Ingredient%22%20style%3D%22rounded%3D1%3BwhiteSpace%3Dwrap%3Bhtml%3D1%3BarcSize%3D40%3BfontColor%3D%23000000%3BfillColor%3D%23ffffc0%3BstrokeColor%3D%23ff0000%3B%22%20vertex%3D%221%22%20parent%3D%221%22%3E%3CmxGeometry%20x%3D%221130%22%20y%3D%22400%22%20width%3D%22120%22%20height%3D%2240%22%20as%3D%22geometry%22%2F%3E%3C%2FmxCell%3E%3CmxCell%20id%3D%229%22%20value%3D%22Add%20another%20Ingredient%3F%22%20style%3D%22rhombus%3BwhiteSpace%3Dwrap%3Bhtml%3D1%3BfillColor%3D%23ffffc0%3BstrokeColor%3D%23ff0000%3B%22%20vertex%3D%221%22%20parent%3D%221%22%3E%3CmxGeometry%20x%3D%22980%22%20y%3D%22460%22%20width%3D%2280%22%20height%3D%2240%22%20as%3D%22geometry%22%2F%3E%3C%2FmxCell%3E%3CmxCell%20id%3D%2210%22%20style%3D%22edgeStyle%3DorthogonalEdgeStyle%3Brounded%3D1%3BorthogonalLoop%3D1%3BjettySize%3Dauto%3Bhtml%3D1%3BexitX%3D0.5%3BexitY%3D1%3BexitDx%3D0%3BexitDy%3D0%3BentryX%3D0.5%3BentryY%3D0%3BentryDx%3D0%3BentryDy%3D0%3BstrokeColor%3D%23FF6666%3BendArrow%3Dopen%3BendFill%3D0%3B%22%20edge%3D%221%22%20target%3D%229%22%20parent%3D%221%22%3E%3CmxGeometry%20relative%3D%221%22%20as%3D%22geometry%22%3E%3CmxPoint%20x%3D%221130%22%20y%3D%22420%22%20as%3D%22sourcePoint%22%2F%3E%3CmxPoint%20x%3D%22990%22%20y%3D%22490%22%20as%3D%22targetPoint%22%2F%3E%3C%2FmxGeometry%3E%3C%2FmxCell%3E%3CmxCell%20id%3D%2211%22%20style%3D%22edgeStyle%3DorthogonalEdgeStyle%3Brounded%3D1%3BorthogonalLoop%3D1%3BjettySize%3Dauto%3Bhtml%3D1%3BexitX%3D0.5%3BexitY%3D1%3BexitDx%3D0%3BexitDy%3D0%3BstrokeColor%3D%23FF6666%3BendArrow%3Dopen%3BendFill%3D0%3BentryX%3D0%3BentryY%3D0.5%3BentryDx%3D0%3BentryDy%3D0%3B%22%20edge%3D%221%22%20parent%3D%221%22%3E%3CmxGeometry%20relative%3D%221%22%20as%3D%22geometry%22%3E%3CmxPoint%20x%3D%22980%22%20y%3D%22480%22%20as%3D%22sourcePoint%22%2F%3E%3CmxPoint%20x%3D%22950%22%20y%3D%22158%22%20as%3D%22targetPoint%22%2F%3E%3C%2FmxGeometry%3E%3C%2FmxCell%3E%3CmxCell%20id%3D%2212%22%20value%3D%22Yes%22%20style%3D%22edgeLabel%3Bhtml%3D1%3Balign%3Dcenter%3BverticalAlign%3Dmiddle%3Bresizable%3D0%3Bpoints%3D%5B%5D%3B%22%20vertex%3D%221%22%20connectable%3D%220%22%20parent%3D%2211%22%3E%3CmxGeometry%20x%3D%22-0.3141%22%20y%3D%221%22%20relative%3D%221%22%20as%3D%22geometry%22%3E%3CmxPoint%20as%3D%22offset%22%2F%3E%3C%2FmxGeometry%3E%3C%2FmxCell%3E%3C%2Froot%3E%3C%2FmxGraphModel%3E&lt;/span&gt;" style="text;html=1;align=center;verticalAlign=middle;resizable=0;points=[];autosize=1;strokeColor=none;" vertex="1" parent="1">
          <mxGeometry x="1165" y="710" width="20" height="20" as="geometry" />
        </mxCell>
        <mxCell id="Or1Zkcrp-nkx-5R_G34u-81" value="Add Ingredient you dont like" style="rounded=1;whiteSpace=wrap;html=1;arcSize=40;fontColor=#000000;fillColor=#ffffc0;strokeColor=#ff0000;" vertex="1" parent="1">
          <mxGeometry x="975" y="620" width="120" height="40" as="geometry" />
        </mxCell>
        <mxCell id="Or1Zkcrp-nkx-5R_G34u-82" value="" style="edgeStyle=orthogonalEdgeStyle;html=1;verticalAlign=bottom;endArrow=open;endSize=8;strokeColor=#ff0000;exitX=1;exitY=0.5;exitDx=0;exitDy=0;" edge="1" parent="1" source="Or1Zkcrp-nkx-5R_G34u-81">
          <mxGeometry relative="1" as="geometry">
            <mxPoint x="1165" y="640" as="targetPoint" />
            <Array as="points">
              <mxPoint x="1135" y="640" />
              <mxPoint x="1135" y="640" />
            </Array>
          </mxGeometry>
        </mxCell>
        <mxCell id="Or1Zkcrp-nkx-5R_G34u-83" value="" style="edgeStyle=orthogonalEdgeStyle;html=1;verticalAlign=bottom;endArrow=open;endSize=8;strokeColor=#ff0000;entryX=0.5;entryY=0;entryDx=0;entryDy=0;" edge="1" parent="1" source="Or1Zkcrp-nkx-5R_G34u-85" target="Or1Zkcrp-nkx-5R_G34u-87">
          <mxGeometry relative="1" as="geometry">
            <mxPoint x="1035" y="722" as="targetPoint" />
            <Array as="points">
              <mxPoint x="1225" y="722" />
              <mxPoint x="1035" y="722" />
            </Array>
          </mxGeometry>
        </mxCell>
        <mxCell id="Or1Zkcrp-nkx-5R_G34u-84" value="" style="edgeStyle=orthogonalEdgeStyle;html=1;verticalAlign=bottom;endArrow=open;endSize=8;strokeColor=#ff0000;exitX=0.55;exitY=0.961;exitDx=0;exitDy=0;exitPerimeter=0;" edge="1" parent="1" source="Or1Zkcrp-nkx-5R_G34u-88">
          <mxGeometry relative="1" as="geometry">
            <mxPoint x="1275" y="902" as="targetPoint" />
            <mxPoint x="1475" y="852" as="sourcePoint" />
            <Array as="points">
              <mxPoint x="1455" y="848" />
              <mxPoint x="1455" y="902" />
            </Array>
          </mxGeometry>
        </mxCell>
        <mxCell id="Or1Zkcrp-nkx-5R_G34u-85" value="Add new field under Ingredient you like" style="rounded=1;whiteSpace=wrap;html=1;arcSize=40;fontColor=#000000;fillColor=#ffffc0;strokeColor=#ff0000;" vertex="1" parent="1">
          <mxGeometry x="1165" y="620" width="120" height="40" as="geometry" />
        </mxCell>
        <mxCell id="Or1Zkcrp-nkx-5R_G34u-86" value="" style="edgeStyle=orthogonalEdgeStyle;html=1;align=left;verticalAlign=bottom;endArrow=open;endSize=8;strokeColor=#ff0000;exitX=0.5;exitY=1;exitDx=0;exitDy=0;entryX=0;entryY=0.5;entryDx=0;entryDy=0;" edge="1" parent="1" source="Or1Zkcrp-nkx-5R_G34u-87">
          <mxGeometry x="0.5559" relative="1" as="geometry">
            <mxPoint x="1415" y="832" as="targetPoint" />
            <mxPoint as="offset" />
            <mxPoint x="1020" y="812" as="sourcePoint" />
            <Array as="points">
              <mxPoint x="1035" y="832" />
            </Array>
          </mxGeometry>
        </mxCell>
        <mxCell id="Or1Zkcrp-nkx-5R_G34u-87" value="Type Ingredient Name" style="rounded=1;whiteSpace=wrap;html=1;arcSize=40;fontColor=#000000;fillColor=#ffffc0;strokeColor=#ff0000;" vertex="1" parent="1">
          <mxGeometry x="975" y="742" width="120" height="40" as="geometry" />
        </mxCell>
        <mxCell id="Or1Zkcrp-nkx-5R_G34u-88" value="Save Ingredient in Storage" style="rounded=1;whiteSpace=wrap;html=1;arcSize=40;fontColor=#000000;fillColor=#ffffc0;strokeColor=#ff0000;" vertex="1" parent="1">
          <mxGeometry x="1420" y="810" width="120" height="40" as="geometry" />
        </mxCell>
        <mxCell id="Or1Zkcrp-nkx-5R_G34u-89" value="Show Ingredient" style="rounded=1;whiteSpace=wrap;html=1;arcSize=40;fontColor=#000000;fillColor=#ffffc0;strokeColor=#ff0000;" vertex="1" parent="1">
          <mxGeometry x="1155" y="882" width="120" height="40" as="geometry" />
        </mxCell>
        <mxCell id="Or1Zkcrp-nkx-5R_G34u-90" value="Add another Ingredient?" style="rhombus;whiteSpace=wrap;html=1;fillColor=#ffffc0;strokeColor=#ff0000;" vertex="1" parent="1">
          <mxGeometry x="1005" y="942" width="80" height="40" as="geometry" />
        </mxCell>
        <mxCell id="Or1Zkcrp-nkx-5R_G34u-91" style="edgeStyle=orthogonalEdgeStyle;rounded=1;orthogonalLoop=1;jettySize=auto;html=1;exitX=0.5;exitY=1;exitDx=0;exitDy=0;entryX=0.5;entryY=0;entryDx=0;entryDy=0;strokeColor=#FF6666;endArrow=open;endFill=0;" edge="1" parent="1" target="Or1Zkcrp-nkx-5R_G34u-90">
          <mxGeometry relative="1" as="geometry">
            <mxPoint x="1155" y="902" as="sourcePoint" />
            <mxPoint x="1015" y="972" as="targetPoint" />
          </mxGeometry>
        </mxCell>
        <mxCell id="Or1Zkcrp-nkx-5R_G34u-92" style="edgeStyle=orthogonalEdgeStyle;rounded=1;orthogonalLoop=1;jettySize=auto;html=1;exitX=0.5;exitY=1;exitDx=0;exitDy=0;strokeColor=#FF6666;endArrow=open;endFill=0;entryX=0;entryY=0.5;entryDx=0;entryDy=0;" edge="1" parent="1" target="Or1Zkcrp-nkx-5R_G34u-81">
          <mxGeometry relative="1" as="geometry">
            <mxPoint x="1005" y="962" as="sourcePoint" />
            <mxPoint x="945" y="642" as="targetPoint" />
          </mxGeometry>
        </mxCell>
        <mxCell id="Or1Zkcrp-nkx-5R_G34u-93" value="Yes" style="edgeLabel;html=1;align=center;verticalAlign=middle;resizable=0;points=[];" vertex="1" connectable="0" parent="Or1Zkcrp-nkx-5R_G34u-92">
          <mxGeometry x="-0.3141" y="1" relative="1" as="geometry">
            <mxPoint as="offset" />
          </mxGeometry>
        </mxCell>
        <mxCell id="Or1Zkcrp-nkx-5R_G34u-94" value="" style="edgeStyle=orthogonalEdgeStyle;html=1;verticalAlign=bottom;endArrow=open;endSize=8;strokeColor=#ff0000;entryX=0;entryY=0.5;entryDx=0;entryDy=0;exitX=0.5;exitY=1;exitDx=0;exitDy=0;" edge="1" parent="1" source="Or1Zkcrp-nkx-5R_G34u-76" target="Or1Zkcrp-nkx-5R_G34u-90">
          <mxGeometry relative="1" as="geometry">
            <mxPoint x="1020" y="148" as="targetPoint" />
            <mxPoint x="920" y="520" as="sourcePoint" />
            <Array as="points">
              <mxPoint x="1020" y="550" />
              <mxPoint x="880" y="550" />
              <mxPoint x="880" y="962" />
            </Array>
          </mxGeometry>
        </mxCell>
        <mxCell id="Or1Zkcrp-nkx-5R_G34u-95" style="edgeStyle=orthogonalEdgeStyle;rounded=1;orthogonalLoop=1;jettySize=auto;html=1;exitX=0.5;exitY=1;exitDx=0;exitDy=0;entryX=0.5;entryY=0;entryDx=0;entryDy=0;strokeColor=#FF6666;endArrow=open;endFill=0;" edge="1" parent="1" source="Or1Zkcrp-nkx-5R_G34u-90" target="Or1Zkcrp-nkx-5R_G34u-65">
          <mxGeometry relative="1" as="geometry">
            <mxPoint x="1065" y="1040" as="sourcePoint" />
            <mxPoint x="955" y="1080" as="targetPoint" />
          </mxGeometry>
        </mxCell>
        <mxCell id="Or1Zkcrp-nkx-5R_G34u-96" value="No" style="edgeLabel;html=1;align=center;verticalAlign=middle;resizable=0;points=[];" vertex="1" connectable="0" parent="Or1Zkcrp-nkx-5R_G34u-95">
          <mxGeometry x="-0.2942" y="-2" relative="1" as="geometry">
            <mxPoint y="-1" as="offset" />
          </mxGeometry>
        </mxCell>
        <mxCell id="Or1Zkcrp-nkx-5R_G34u-97" value="No" style="text;html=1;align=center;verticalAlign=middle;resizable=0;points=[];autosize=1;strokeColor=none;" vertex="1" parent="1">
          <mxGeometry x="1015" y="520" width="30" height="20" as="geometry" />
        </mxCell>
      </root>
    </mxGraphModel>
  </diagram>
</mxfile>
